<svg xmlns="http://www.w3.org/2000/svg" xmlns:xlink="http://www.w3.org/1999/xlink" width="21.755" height="21.752" viewBox="0 0 21.755 21.752">
  <defs>
    <clipPath id="clip-path">
      <rect width="21.755" height="21.752" fill="none"/>
    </clipPath>
  </defs>
  <g id="Repeat_Grid_5" data-name="Repeat Grid 5" clip-path="url(#clip-path)">
    <g id="Group_963" data-name="Group 963" transform="translate(0.125 0.125)">
      <path id="Path_9" data-name="Path 9" d="M837.414,280.257a10.778,10.778,0,0,0-5.238-3.94c.1-.074.159-.118.219-.166a6.116,6.116,0,0,0,2.464-4.8,5.942,5.942,0,0,0-1.022-3.571,6.051,6.051,0,0,0-3.494-2.556c-.414-.116-.847-.167-1.272-.248h-.84c-.424.081-.857.132-1.272.248a6.052,6.052,0,0,0-3.494,2.556,5.942,5.942,0,0,0-1.022,3.572,6.119,6.119,0,0,0,2.465,4.8c.06.047.122.092.216.163l-.242.1a10.7,10.7,0,0,0-6.2,6.048,9.969,9.969,0,0,0-.745,3.213,1.461,1.461,0,0,1-.035.18v.63h1.669a9.119,9.119,0,0,1,8.582-9.057,8.713,8.713,0,0,1,5.592,1.565,9.016,9.016,0,0,1,3.993,7.482H839.4A10.628,10.628,0,0,0,837.414,280.257Zm-8.771-4.527a4.535,4.535,0,1,1,4.543-4.537A4.549,4.549,0,0,1,828.643,275.73Z" transform="translate(-817.9 -264.98)" fill="#252425" stroke="#252425" stroke-width="0.25"/>
    </g>
  </g>
</svg>
