<svg id="Layer_2" data-name="Layer 2" xmlns="http://www.w3.org/2000/svg" width="19.444" height="24.502" viewBox="0 0 19.444 24.502">
  <path id="Path_213" data-name="Path 213" d="M14.918,16.726a4.9,4.9,0,0,1-4.811-3.937.827.827,0,0,1,1.633-.261,3.267,3.267,0,0,0,6.4,0,.827.827,0,0,1,1.633.261A4.9,4.9,0,0,1,14.918,16.726Z" transform="translate(-5.196 -2.988)" fill="#252425"/>
  <path id="Path_214" data-name="Path 214" d="M21.087,26.737H6.55A2.45,2.45,0,0,1,4.1,24.165l.662-14.08A2.45,2.45,0,0,1,7.211,7.74H20.426a2.45,2.45,0,0,1,2.45,2.344l.662,14.08a2.45,2.45,0,0,1-2.45,2.573ZM7.211,9.382a.817.817,0,0,0-.817.817L5.733,24.246a.817.817,0,0,0,.817.858H21.087a.817.817,0,0,0,.817-.858l-.662-14.08a.817.817,0,0,0-.817-.817Z" transform="translate(-4.096 -2.235)" fill="#252425"/>
  <path id="Path_215" data-name="Path 215" d="M19.8,7.33H18.167V5.9a3.267,3.267,0,1,0-6.534,0V7.33H10V5.9a4.9,4.9,0,1,1,9.8,0Z" transform="translate(-5.178 -1)" fill="#252425"/>
</svg>
