<svg xmlns="http://www.w3.org/2000/svg" width="25.192" height="20.938" viewBox="0 0 25.192 20.938">
  <g id="Group_964" data-name="Group 964" transform="translate(0.25 0.255)">
    <path id="Path_10" data-name="Path 10" d="M1054.771,709.9a6.939,6.939,0,0,0-5.971-5.3,6.768,6.768,0,0,0-5.354,1.607c-.286.241-.546.515-.818.774a.13.13,0,0,1-.042-.019c-.041-.04-.079-.08-.117-.122a6.521,6.521,0,0,0-2.012-1.547,7.022,7.022,0,0,0-9.986,4.669c-.088.357-.129.724-.191,1.088v.964a1.209,1.209,0,0,1,.039.163,7.677,7.677,0,0,0,.809,2.607,15.531,15.531,0,0,0,2.966,3.954,39.163,39.163,0,0,0,8.106,6.092.765.765,0,0,0,.853,0,38.44,38.44,0,0,0,8.123-6.068,15.323,15.323,0,0,0,2.978-4A6.871,6.871,0,0,0,1054.771,709.9Zm-1.969,4.785a15.95,15.95,0,0,1-3.1,3.789,38.819,38.819,0,0,1-6.919,5.081.251.251,0,0,1-.3,0,40.037,40.037,0,0,1-6.958-5.152,14.946,14.946,0,0,1-3.326-4.245,5.521,5.521,0,0,1,.22-5.649,5.6,5.6,0,0,1,4.877-2.724,5.685,5.685,0,0,1,4.653,2.392,2.508,2.508,0,0,0,.223.284.636.636,0,0,0,.908.005,2.656,2.656,0,0,0,.243-.3,5.633,5.633,0,0,1,5.1-2.363,5.752,5.752,0,0,1,5.2,4.692A6.117,6.117,0,0,1,1052.8,714.685Z" transform="translate(-1030.28 -704.527)" fill="#252425" stroke="#252425" stroke-width="0.5"/>
  </g>
</svg>
